REM DIRINDEX 1\2\6,1\2\7,1\2\8,1\2\9,1\3\10,1\3\11,1\4\12,1\4\13,1\4\14,1\5\15,1\5\16,1\5\17
REM DIRNAME folder01,folder02,folder03,folder04,folder05,folder06,folder07,folder08,folder09,folder10,folder11,folder12,folder13,folder14,folder15,folder16,folder17
TITLE ""
FILE "1400_3_sec13_1249_1265.mp3" MP3
  TRACK 01 AUDIO
    TITLE "0:"
    INDEX 01 00:00:00
  TRACK 02 AUDIO
    TITLE "17:cjc029_6938"
    INDEX 01 00:00:15
  TRACK 03 AUDIO
    TITLE "0:"
    INDEX 01 00:01:58
  TRACK 04 AUDIO
    TITLE "16:cjc029_6939"
    INDEX 01 00:01:60
  TRACK 05 AUDIO
    TITLE "0:"
    INDEX 01 00:02:73
  TRACK 06 AUDIO
    TITLE "17:cjc029_6940"
    INDEX 01 00:03:59
  TRACK 07 AUDIO
    TITLE "0:"
    INDEX 01 00:05:71
  TRACK 08 AUDIO
    TITLE "16:cjc029_6941"
    INDEX 01 00:06:02
  TRACK 09 AUDIO
    TITLE "0:"
    INDEX 01 00:07:29
  TRACK 10 AUDIO
    TITLE "17:cjc029_6942"
    INDEX 01 00:08:11
  TRACK 11 AUDIO
    TITLE "0:"
    INDEX 01 00:09:16
  TRACK 12 AUDIO
    TITLE "16:cjc029_6943"
    INDEX 01 00:09:24
  TRACK 13 AUDIO
    TITLE "0:"
    INDEX 01 00:10:37
  TRACK 14 AUDIO
    TITLE "17:cjc029_6944"
    INDEX 01 00:11:25
  TRACK 15 AUDIO
    TITLE "0:"
    INDEX 01 00:13:73
  TRACK 16 AUDIO
    TITLE "16:cjc029_6945"
    INDEX 01 00:14:06
  TRACK 17 AUDIO
    TITLE "0:"
    INDEX 01 00:15:07
  TRACK 18 AUDIO
    TITLE "17:cjc029_6946"
    INDEX 01 00:15:70
  TRACK 19 AUDIO
    TITLE "0:"
    INDEX 01 00:17:04
  TRACK 20 AUDIO
    TITLE "16:cjc029_6947"
    INDEX 01 00:17:10
  TRACK 21 AUDIO
    TITLE "0:"
    INDEX 01 00:18:17
  TRACK 22 AUDIO
    TITLE "17:cjc029_6948"
    INDEX 01 00:19:01
  TRACK 23 AUDIO
    TITLE "0:"
    INDEX 01 00:21:04
  TRACK 24 AUDIO
    TITLE "16:cjc029_6949"
    INDEX 01 00:21:11
  TRACK 25 AUDIO
    TITLE "0:"
    INDEX 01 00:22:25
  TRACK 26 AUDIO
    TITLE "17:cjc029_6950"
    INDEX 01 00:23:12
  TRACK 27 AUDIO
    TITLE "0:"
    INDEX 01 00:24:31
  TRACK 28 AUDIO
    TITLE "16:cjc029_6951"
    INDEX 01 00:24:35
  TRACK 29 AUDIO
    TITLE "0:"
    INDEX 01 00:25:45
  TRACK 30 AUDIO
    TITLE "17:cjc029_6952"
    INDEX 01 00:26:28
  TRACK 31 AUDIO
    TITLE "0:"
    INDEX 01 00:27:43
  TRACK 32 AUDIO
    TITLE "16:cjc029_6953"
    INDEX 01 00:27:47
  TRACK 33 AUDIO
    TITLE "0:"
    INDEX 01 00:28:55
  TRACK 34 AUDIO
    TITLE "17:cjc029_6954"
    INDEX 01 00:29:36
  TRACK 35 AUDIO
    TITLE "0:"
    INDEX 01 00:31:31
  TRACK 36 AUDIO
    TITLE "16:cjc029_6955"
    INDEX 01 00:31:37
  TRACK 37 AUDIO
    TITLE "0:"
    INDEX 01 00:32:47
  TRACK 38 AUDIO
    TITLE "17:cjc029_6956"
    INDEX 01 00:33:32
  TRACK 39 AUDIO
    TITLE "0:"
    INDEX 01 00:34:34
  TRACK 40 AUDIO
    TITLE "16:cjc029_6957"
    INDEX 01 00:34:43
  TRACK 41 AUDIO
    TITLE "0:"
    INDEX 01 00:35:61
  TRACK 42 AUDIO
    TITLE "17:cjc029_6958"
    INDEX 01 00:36:44
  TRACK 43 AUDIO
    TITLE "0:"
    INDEX 01 00:37:50
  TRACK 44 AUDIO
    TITLE "16:cjc029_6959"
    INDEX 01 00:37:56
  TRACK 45 AUDIO
    TITLE "0:"
    INDEX 01 00:38:65
  TRACK 46 AUDIO
    TITLE "17:cjc029_6960"
    INDEX 01 00:39:49
  TRACK 47 AUDIO
    TITLE "0:"
    INDEX 01 00:40:70
  TRACK 48 AUDIO
    TITLE "16:cjc029_6961"
    INDEX 01 00:40:73
  TRACK 49 AUDIO
    TITLE "0:"
    INDEX 01 00:42:14
  TRACK 50 AUDIO
    TITLE "17:cjc029_6962"
    INDEX 01 00:42:70
  TRACK 51 AUDIO
    TITLE "0:"
    INDEX 01 00:44:14
  TRACK 52 AUDIO
    TITLE "16:cjc029_6963"
    INDEX 01 00:44:20
  TRACK 53 AUDIO
    TITLE "0:"
    INDEX 01 00:45:22
  TRACK 54 AUDIO
    TITLE "17:cjc029_6964"
    INDEX 01 00:46:07
  TRACK 55 AUDIO
    TITLE "0:"
    INDEX 01 00:48:04
  TRACK 56 AUDIO
    TITLE "16:cjc029_6965"
    INDEX 01 00:48:16
  TRACK 57 AUDIO
    TITLE "0:"
    INDEX 01 00:49:25
  TRACK 58 AUDIO
    TITLE "17:cjc029_6966"
    INDEX 01 00:50:09
  TRACK 59 AUDIO
    TITLE "0:"
    INDEX 01 00:51:28
  TRACK 60 AUDIO
    TITLE "16:cjc029_6967"
    INDEX 01 00:51:36
  TRACK 61 AUDIO
    TITLE "0:"
    INDEX 01 00:52:43
  TRACK 62 AUDIO
    TITLE "17:cjc029_6968"
    INDEX 01 00:53:29
  TRACK 63 AUDIO
    TITLE "0:"
    INDEX 01 00:54:40
  TRACK 64 AUDIO
    TITLE "16:cjc029_6969"
    INDEX 01 00:54:48
  TRACK 65 AUDIO
    TITLE "0:"
    INDEX 01 00:55:46
  TRACK 66 AUDIO
    TITLE "17:cjc029_6970"
    INDEX 01 00:56:29
  TRACK 67 AUDIO
    TITLE "0:"
    INDEX 01 00:57:52
  TRACK 68 AUDIO
    TITLE "16:cjc029_6971"
    INDEX 01 00:57:58
  TRACK 69 AUDIO
    TITLE "0:"
    INDEX 01 00:58:66
